<?xml version="1.0" encoding="utf-8"?>
<svg xmlns="http://www.w3.org/2000/svg" x="0px" y="0px" viewBox="0 0 1000 1000" width="18px" height="18px" fill="#FFFFFF">
<path d="M500.5,507.3c79.5,0,143.9-64.3,143.9-143.7c0-79.3-64.4-143.7-143.9-143.7s-143.9,64.3-143.9,143.7C356.6,443,421.1,507.3,500.5,507.3z M627.7,529.8l-11.6-0.1c-4,0-10.1,1.5-13.7,3.4c0,0-9.2,5.3-17.6,8.9c-25.1,10.8-53.7,17-84,17c-30.2,0-58.7-6.1-83.7-16.8c-8.5-3.7-17.9-9.1-17.9-9.1c-3.5-1.9-9.6-3.5-13.7-3.5l-11.4,0.1c-45.9,6-94.1,46.7-107.9,90.8c0,0-14.7,29.7-16.8,88.1c-0.2,4.4,0,0,0,0c-0.1,7.6,6,17.3,13.9,21.4c0,0,78.1,50.1,237.1,50.1c159,0,237.1-50.2,237.1-50.2c7.8-4.2,14-14.8,13.8-21.5c0,0,0.2,4.4,0,0c-2-58.1-16.3-86.6-16.3-86.6C722.4,577.5,673.4,536.5,627.7,529.8z"/><path d="M631.4,495.4c15.4-12.2,33.5-20.9,51.1-23.2l7.9-0.1c4,0,10.2,1.5,13.7,3.5c0,0,6.5,3.7,13.4,6.7c20.4,8.7,43.6,13.7,68.2,13.7c24.7,0,48-5,68.5-13.8c6.8-3,13.1-6.6,13.1-6.6c3.5-1.9,9.6-3.5,13.7-3.4l8.1,0.1c37.3,5.5,77.2,38.8,87.6,75c0,0,11.6,23.2,13.3,70.5c0.1,3.6,0,0,0,0c0.1,4.1-6.1,14.6-13.9,18.8c0,0-61,39.5-190.5,39.5c-2.1,0-4.2,0-6.2,0c0.5-5.2,0.7-10.5,0.7-15.8C780,574.5,714.9,504,631.4,495.4L631.4,495.4z M785.5,454c64.8,0,117.3-52.4,117.3-117s-52.5-117-117.3-117s-117.3,52.4-117.3,117C668.2,401.6,720.7,454,785.5,454z"/><path d="M368.6,495.4c-15.4-12.2-33.5-20.9-51.1-23.2l-7.9-0.1c-4,0-10.2,1.5-13.7,3.5c0,0-6.5,3.7-13.4,6.7c-20.4,8.7-43.6,13.7-68.2,13.7c-24.7,0-48-5-68.5-13.8c-6.8-3-13.1-6.6-13.1-6.6c-3.5-1.9-9.6-3.5-13.7-3.4l-8.1,0.1c-37.3,5.5-77.2,38.8-87.6,75c0,0-11.6,23.2-13.3,70.5c-0.1,3.6,0,0,0,0c-0.1,4.1,6.1,14.6,13.9,18.8c0,0,61,39.5,190.5,39.5c2.1,0,4.2,0,6.2,0c-0.5-5.2-0.7-10.5-0.7-15.8C220,574.5,285.1,504,368.6,495.4L368.6,495.4z M214.5,454c-64.8,0-117.3-52.4-117.3-117s52.5-117,117.3-117s117.3,52.4,117.3,117C331.8,401.6,279.3,454,214.5,454z"/>
</svg>
